<?xml version="1.0" encoding="utf-8"?>
<!-- Generator: Adobe Illustrator 23.1.1, SVG Export Plug-In . SVG Version: 6.00 Build 0)  -->
<svg version="1.1" id="Layer_1" xmlns="http://www.w3.org/2000/svg" xmlns:xlink="http://www.w3.org/1999/xlink" x="0px" y="0px"
	 viewBox="0 0 695.7 189" style="enable-background:new 0 0 695.7 189;" xml:space="preserve">
<style type="text/css">
	
		.st0{fill:none;stroke:#1A1A1A;stroke-width:0.5;stroke-linejoin:bevel;stroke-miterlimit:1;stroke-opacity:0.251;stroke-dasharray:1,3;}
	.st1{fill:none;stroke:#262626;stroke-width:0.5;stroke-linejoin:round;stroke-miterlimit:10;stroke-opacity:0.149;}
	.st2{fill:none;stroke:#262626;stroke-width:0.5;stroke-linecap:square;stroke-linejoin:round;stroke-miterlimit:10;}
	.st3{fill:#262626;}
	.st4{font-family:'HelveticaNeue';}
	.st5{font-size:10px;}
	.st6{fill:none;stroke:#0072BD;stroke-width:0.5;stroke-linejoin:round;stroke-miterlimit:10;}
	.st7{fill:none;stroke:#D95319;stroke-width:0.5;stroke-linejoin:round;stroke-miterlimit:10;}
	.st8{fill:#FFFFFF;}
	.st9{font-size:9px;}
	.st10{fill:none;stroke:#262626;stroke-width:0.5;stroke-miterlimit:10;}
</style>
<g>
	<g>
		<line class="st0" x1="35.6" y1="168" x2="35.6" y2="14"/>
		<line class="st0" x1="44.7" y1="168" x2="44.7" y2="14"/>
		<line class="st0" x1="53.8" y1="168" x2="53.8" y2="14"/>
		<line class="st0" x1="62.9" y1="168" x2="62.9" y2="14"/>
		<line class="st0" x1="81.2" y1="168" x2="81.2" y2="14"/>
		<line class="st0" x1="90.3" y1="168" x2="90.3" y2="14"/>
		<line class="st0" x1="99.4" y1="168" x2="99.4" y2="14"/>
		<line class="st0" x1="108.6" y1="168" x2="108.6" y2="14"/>
		<line class="st0" x1="126.8" y1="168" x2="126.8" y2="14"/>
		<line class="st0" x1="135.9" y1="168" x2="135.9" y2="14"/>
		<line class="st0" x1="145.1" y1="168" x2="145.1" y2="14"/>
		<line class="st0" x1="154.2" y1="168" x2="154.2" y2="14"/>
		<line class="st0" x1="172.4" y1="168" x2="172.4" y2="14"/>
		<line class="st0" x1="181.6" y1="168" x2="181.6" y2="14"/>
		<line class="st0" x1="190.7" y1="168" x2="190.7" y2="14"/>
		<line class="st0" x1="199.8" y1="168" x2="199.8" y2="14"/>
	</g>
	<g>
		<line class="st1" x1="26.4" y1="168" x2="26.4" y2="14"/>
		<line class="st1" x1="72.1" y1="168" x2="72.1" y2="14"/>
		<line class="st1" x1="117.7" y1="168" x2="117.7" y2="14"/>
		<line class="st1" x1="163.3" y1="168" x2="163.3" y2="14"/>
		<line class="st1" x1="208.9" y1="168" x2="208.9" y2="14"/>
	</g>
	<g>
		<line class="st0" x1="208.9" y1="162.9" x2="26.4" y2="162.9"/>
		<line class="st0" x1="208.9" y1="157.7" x2="26.4" y2="157.7"/>
		<line class="st0" x1="208.9" y1="152.6" x2="26.4" y2="152.6"/>
		<line class="st0" x1="208.9" y1="147.5" x2="26.4" y2="147.5"/>
		<line class="st0" x1="208.9" y1="137.2" x2="26.4" y2="137.2"/>
		<line class="st0" x1="208.9" y1="132.1" x2="26.4" y2="132.1"/>
		<line class="st0" x1="208.9" y1="126.9" x2="26.4" y2="126.9"/>
		<line class="st0" x1="208.9" y1="121.8" x2="26.4" y2="121.8"/>
		<line class="st0" x1="208.9" y1="111.5" x2="26.4" y2="111.5"/>
		<line class="st0" x1="208.9" y1="106.4" x2="26.4" y2="106.4"/>
		<line class="st0" x1="208.9" y1="101.3" x2="26.4" y2="101.3"/>
		<line class="st0" x1="208.9" y1="96.1" x2="26.4" y2="96.1"/>
		<line class="st0" x1="208.9" y1="85.9" x2="26.4" y2="85.9"/>
		<line class="st0" x1="208.9" y1="80.7" x2="26.4" y2="80.7"/>
		<line class="st0" x1="208.9" y1="75.6" x2="26.4" y2="75.6"/>
		<line class="st0" x1="208.9" y1="70.5" x2="26.4" y2="70.5"/>
		<line class="st0" x1="208.9" y1="60.2" x2="26.4" y2="60.2"/>
		<line class="st0" x1="208.9" y1="55.1" x2="26.4" y2="55.1"/>
		<line class="st0" x1="208.9" y1="49.9" x2="26.4" y2="49.9"/>
		<line class="st0" x1="208.9" y1="44.8" x2="26.4" y2="44.8"/>
		<line class="st0" x1="208.9" y1="34.5" x2="26.4" y2="34.5"/>
		<line class="st0" x1="208.9" y1="29.4" x2="26.4" y2="29.4"/>
		<line class="st0" x1="208.9" y1="24.3" x2="26.4" y2="24.3"/>
		<line class="st0" x1="208.9" y1="19.1" x2="26.4" y2="19.1"/>
	</g>
	<g>
		<line class="st1" x1="208.9" y1="168" x2="26.4" y2="168"/>
		<line class="st1" x1="208.9" y1="142.3" x2="26.4" y2="142.3"/>
		<line class="st1" x1="208.9" y1="116.7" x2="26.4" y2="116.7"/>
		<line class="st1" x1="208.9" y1="91" x2="26.4" y2="91"/>
		<line class="st1" x1="208.9" y1="65.3" x2="26.4" y2="65.3"/>
		<line class="st1" x1="208.9" y1="39.7" x2="26.4" y2="39.7"/>
		<line class="st1" x1="208.9" y1="14" x2="26.4" y2="14"/>
		<line class="st2" x1="26.4" y1="168" x2="208.9" y2="168"/>
		<line class="st2" x1="26.4" y1="168" x2="26.4" y2="166.2"/>
		<line class="st2" x1="72.1" y1="168" x2="72.1" y2="166.2"/>
		<line class="st2" x1="117.7" y1="168" x2="117.7" y2="166.2"/>
		<line class="st2" x1="163.3" y1="168" x2="163.3" y2="166.2"/>
		<line class="st2" x1="208.9" y1="168" x2="208.9" y2="166.2"/>
	</g>
	<g transform="translate(111,172)">
		<text transform="matrix(1 0 0 1 -87.5683 10)" class="st3 st4 st5">1</text>
	</g>
	<g transform="translate(293.5,172)">
		<text transform="matrix(1 0 0 1 -87.5683 10)" class="st3 st4 st5">t</text>
	</g>
	<g>
		<line class="st2" x1="26.4" y1="168" x2="26.4" y2="14"/>
		<line class="st2" x1="26.4" y1="168" x2="28.3" y2="168"/>
		<line class="st2" x1="26.4" y1="142.3" x2="28.3" y2="142.3"/>
		<line class="st2" x1="26.4" y1="116.7" x2="28.3" y2="116.7"/>
		<line class="st2" x1="26.4" y1="91" x2="28.3" y2="91"/>
		<line class="st2" x1="26.4" y1="65.3" x2="28.3" y2="65.3"/>
		<line class="st2" x1="26.4" y1="39.7" x2="28.3" y2="39.7"/>
		<line class="st2" x1="26.4" y1="14" x2="28.3" y2="14"/>
	</g>
	<g transform="translate(107,168)">
		<text transform="matrix(1 0 0 1 -102.5683 3.5)" class="st3 st4 st5">-1.5</text>
	</g>
	<g transform="translate(107,142.3333)">
		<text transform="matrix(1 0 0 1 -94.5683 3.5)" class="st3 st4 st5">-1</text>
	</g>
	<g transform="translate(107,116.6667)">
		<text transform="matrix(1 0 0 1 -102.5683 3.5)" class="st3 st4 st5">-0.5</text>
	</g>
	<g transform="translate(107,91)">
		<text transform="matrix(1 0 0 1 -90.5683 3.5)" class="st3 st4 st5">0</text>
	</g>
	<g transform="translate(107,65.3333)">
		<text transform="matrix(1 0 0 1 -98.5683 3.5)" class="st3 st4 st5">0.5</text>
	</g>
	<g transform="translate(107,39.6667)">
		<text transform="matrix(1 0 0 1 -90.5683 3.5001)" class="st3 st4 st5">1</text>
	</g>
	<g transform="translate(107,14)">
		<text transform="matrix(1 0 0 1 -98.5683 3.5)" class="st3 st4 st5">1.5</text>
	</g>
	<g>
		<path class="st6" d="M26.4,91l91.2-51.3L208.9,91"/>
		<path class="st7" d="M26.4,39.7h91.2v102.7h91.2"/>
	</g>
	<g>
		<path class="st8" d="M100.4,160.5V134H32.9v26.5H100.4z"/>
	</g>
	<g transform="translate(154.5,141.5)">
		<text transform="matrix(1 0 0 1 -84.5683 3.5)" class="st4 st9">speed</text>
	</g>
	<g>
		<line class="st6" x1="36.9" y1="141.5" x2="66.9" y2="141.5"/>
	</g>
	<g transform="translate(154.5,153)">
		<text transform="matrix(1 0 0 1 -84.5683 3.5)" class="st4 st9">torque</text>
	</g>
	<g>
		<line class="st7" x1="36.9" y1="153" x2="66.9" y2="153"/>
		<path class="st10" d="M32.9,160.5V134h67.5v26.5H32.9z"/>
	</g>
	<g>
		<path class="st8" d="M266.4,168h182V14h-182V168z"/>
	</g>
	<g>
		<line class="st0" x1="278.6" y1="168" x2="278.6" y2="14"/>
		<line class="st0" x1="290.7" y1="168" x2="290.7" y2="14"/>
		<line class="st0" x1="302.8" y1="168" x2="302.8" y2="14"/>
		<line class="st0" x1="315" y1="168" x2="315" y2="14"/>
		<line class="st0" x1="339.2" y1="168" x2="339.2" y2="14"/>
		<line class="st0" x1="351.4" y1="168" x2="351.4" y2="14"/>
		<line class="st0" x1="363.5" y1="168" x2="363.5" y2="14"/>
		<line class="st0" x1="375.6" y1="168" x2="375.6" y2="14"/>
		<line class="st0" x1="399.9" y1="168" x2="399.9" y2="14"/>
		<line class="st0" x1="412" y1="168" x2="412" y2="14"/>
		<line class="st0" x1="424.2" y1="168" x2="424.2" y2="14"/>
		<line class="st0" x1="436.3" y1="168" x2="436.3" y2="14"/>
	</g>
	<g>
		<line class="st1" x1="266.4" y1="168" x2="266.4" y2="14"/>
		<line class="st1" x1="327.1" y1="168" x2="327.1" y2="14"/>
		<line class="st1" x1="387.8" y1="168" x2="387.8" y2="14"/>
		<line class="st1" x1="448.4" y1="168" x2="448.4" y2="14"/>
	</g>
	<g>
		<line class="st0" x1="448.4" y1="162.9" x2="266.4" y2="162.9"/>
		<line class="st0" x1="448.4" y1="157.7" x2="266.4" y2="157.7"/>
		<line class="st0" x1="448.4" y1="152.6" x2="266.4" y2="152.6"/>
		<line class="st0" x1="448.4" y1="147.5" x2="266.4" y2="147.5"/>
		<line class="st0" x1="448.4" y1="137.2" x2="266.4" y2="137.2"/>
		<line class="st0" x1="448.4" y1="132.1" x2="266.4" y2="132.1"/>
		<line class="st0" x1="448.4" y1="126.9" x2="266.4" y2="126.9"/>
		<line class="st0" x1="448.4" y1="121.8" x2="266.4" y2="121.8"/>
		<line class="st0" x1="448.4" y1="111.5" x2="266.4" y2="111.5"/>
		<line class="st0" x1="448.4" y1="106.4" x2="266.4" y2="106.4"/>
		<line class="st0" x1="448.4" y1="101.3" x2="266.4" y2="101.3"/>
		<line class="st0" x1="448.4" y1="96.1" x2="266.4" y2="96.1"/>
		<line class="st0" x1="448.4" y1="85.9" x2="266.4" y2="85.9"/>
		<line class="st0" x1="448.4" y1="80.7" x2="266.4" y2="80.7"/>
		<line class="st0" x1="448.4" y1="75.6" x2="266.4" y2="75.6"/>
		<line class="st0" x1="448.4" y1="70.5" x2="266.4" y2="70.5"/>
		<line class="st0" x1="448.4" y1="60.2" x2="266.4" y2="60.2"/>
		<line class="st0" x1="448.4" y1="55.1" x2="266.4" y2="55.1"/>
		<line class="st0" x1="448.4" y1="49.9" x2="266.4" y2="49.9"/>
		<line class="st0" x1="448.4" y1="44.8" x2="266.4" y2="44.8"/>
		<line class="st0" x1="448.4" y1="34.5" x2="266.4" y2="34.5"/>
		<line class="st0" x1="448.4" y1="29.4" x2="266.4" y2="29.4"/>
		<line class="st0" x1="448.4" y1="24.3" x2="266.4" y2="24.3"/>
		<line class="st0" x1="448.4" y1="19.1" x2="266.4" y2="19.1"/>
	</g>
	<g>
		<line class="st1" x1="448.4" y1="168" x2="266.4" y2="168"/>
		<line class="st1" x1="448.4" y1="142.3" x2="266.4" y2="142.3"/>
		<line class="st1" x1="448.4" y1="116.7" x2="266.4" y2="116.7"/>
		<line class="st1" x1="448.4" y1="91" x2="266.4" y2="91"/>
		<line class="st1" x1="448.4" y1="65.3" x2="266.4" y2="65.3"/>
		<line class="st1" x1="448.4" y1="39.7" x2="266.4" y2="39.7"/>
		<line class="st1" x1="448.4" y1="14" x2="266.4" y2="14"/>
		<line class="st2" x1="266.4" y1="168" x2="448.4" y2="168"/>
		<line class="st2" x1="266.4" y1="168" x2="266.4" y2="166.2"/>
		<line class="st2" x1="327.1" y1="168" x2="327.1" y2="166.2"/>
		<line class="st2" x1="387.8" y1="168" x2="387.8" y2="166.2"/>
		<line class="st2" x1="448.4" y1="168" x2="448.4" y2="166.2"/>
	</g>
	<g transform="translate(351,172)">
		<text transform="matrix(1 0 0 1 -87.5683 10)" class="st3 st4 st5">1</text>
	</g>
	<g transform="translate(533,172)">
		<text transform="matrix(1 0 0 1 -87.5683 10)" class="st3 st4 st5">t</text>
	</g>
	<g>
		<line class="st2" x1="266.4" y1="168" x2="266.4" y2="14"/>
		<line class="st2" x1="266.4" y1="168" x2="268.3" y2="168"/>
		<line class="st2" x1="266.4" y1="142.3" x2="268.3" y2="142.3"/>
		<line class="st2" x1="266.4" y1="116.7" x2="268.3" y2="116.7"/>
		<line class="st2" x1="266.4" y1="91" x2="268.3" y2="91"/>
		<line class="st2" x1="266.4" y1="65.3" x2="268.3" y2="65.3"/>
		<line class="st2" x1="266.4" y1="39.7" x2="268.3" y2="39.7"/>
		<line class="st2" x1="266.4" y1="14" x2="268.3" y2="14"/>
	</g>
	<g transform="translate(347,168)">
		<text transform="matrix(1 0 0 1 -102.5683 3.5)" class="st3 st4 st5">-1.5</text>
	</g>
	<g transform="translate(347,142.3333)">
		<text transform="matrix(1 0 0 1 -94.5683 3.5)" class="st3 st4 st5">-1</text>
	</g>
	<g transform="translate(347,116.6667)">
		<text transform="matrix(1 0 0 1 -102.5683 3.5)" class="st3 st4 st5">-0.5</text>
	</g>
	<g transform="translate(347,91)">
		<text transform="matrix(1 0 0 1 -90.5683 3.5)" class="st3 st4 st5">0</text>
	</g>
	<g transform="translate(347,65.3333)">
		<text transform="matrix(1 0 0 1 -98.5683 3.5)" class="st3 st4 st5">0.5</text>
	</g>
	<g transform="translate(347,39.6667)">
		<text transform="matrix(1 0 0 1 -90.5683 3.5001)" class="st3 st4 st5">1</text>
	</g>
	<g transform="translate(347,14)">
		<text transform="matrix(1 0 0 1 -98.5683 3.5)" class="st3 st4 st5">1.5</text>
	</g>
	<g>
		<path class="st6" d="M266.4,91l60.7-51.3h60.7L448.4,91"/>
		<path class="st7" d="M266.4,65.3h60.7V91h60.7v25.7h60.7"/>
	</g>
	<g>
		<path class="st8" d="M339.9,161.5V135h-67.5v26.5H339.9z"/>
	</g>
	<g transform="translate(394,142.5)">
		<text transform="matrix(1 0 0 1 -84.5683 3.5)" class="st4 st9">speed</text>
	</g>
	<g>
		<line class="st6" x1="276.4" y1="142.5" x2="306.4" y2="142.5"/>
	</g>
	<g transform="translate(394,154)">
		<text transform="matrix(1 0 0 1 -84.5683 3.5)" class="st4 st9">torque</text>
	</g>
	<g>
		<line class="st7" x1="276.4" y1="154" x2="306.4" y2="154"/>
		<path class="st10" d="M272.4,161.5V135h67.5v26.5H272.4z"/>
	</g>
	<g>
		<path class="st8" d="M505.9,168h182.5V14H505.9V168z"/>
	</g>
	<g>
		<line class="st0" x1="515.1" y1="168" x2="515.1" y2="14"/>
		<line class="st0" x1="524.2" y1="168" x2="524.2" y2="14"/>
		<line class="st0" x1="533.3" y1="168" x2="533.3" y2="14"/>
		<line class="st0" x1="551.6" y1="168" x2="551.6" y2="14"/>
		<line class="st0" x1="560.7" y1="168" x2="560.7" y2="14"/>
		<line class="st0" x1="569.8" y1="168" x2="569.8" y2="14"/>
		<line class="st0" x1="588.1" y1="168" x2="588.1" y2="14"/>
		<line class="st0" x1="597.2" y1="168" x2="597.2" y2="14"/>
		<line class="st0" x1="606.3" y1="168" x2="606.3" y2="14"/>
		<line class="st0" x1="624.6" y1="168" x2="624.6" y2="14"/>
		<line class="st0" x1="633.7" y1="168" x2="633.7" y2="14"/>
		<line class="st0" x1="642.8" y1="168" x2="642.8" y2="14"/>
		<line class="st0" x1="661.1" y1="168" x2="661.1" y2="14"/>
		<line class="st0" x1="670.2" y1="168" x2="670.2" y2="14"/>
		<line class="st0" x1="679.3" y1="168" x2="679.3" y2="14"/>
	</g>
	<g>
		<line class="st1" x1="505.9" y1="168" x2="505.9" y2="14"/>
		<line class="st1" x1="542.4" y1="168" x2="542.4" y2="14"/>
		<line class="st1" x1="578.9" y1="168" x2="578.9" y2="14"/>
		<line class="st1" x1="615.4" y1="168" x2="615.4" y2="14"/>
		<line class="st1" x1="651.9" y1="168" x2="651.9" y2="14"/>
		<line class="st1" x1="688.4" y1="168" x2="688.4" y2="14"/>
	</g>
	<g>
		<line class="st0" x1="688.4" y1="162.9" x2="505.9" y2="162.9"/>
		<line class="st0" x1="688.4" y1="157.7" x2="505.9" y2="157.7"/>
		<line class="st0" x1="688.4" y1="152.6" x2="505.9" y2="152.6"/>
		<line class="st0" x1="688.4" y1="147.5" x2="505.9" y2="147.5"/>
		<line class="st0" x1="688.4" y1="137.2" x2="505.9" y2="137.2"/>
		<line class="st0" x1="688.4" y1="132.1" x2="505.9" y2="132.1"/>
		<line class="st0" x1="688.4" y1="126.9" x2="505.9" y2="126.9"/>
		<line class="st0" x1="688.4" y1="121.8" x2="505.9" y2="121.8"/>
		<line class="st0" x1="688.4" y1="111.5" x2="505.9" y2="111.5"/>
		<line class="st0" x1="688.4" y1="106.4" x2="505.9" y2="106.4"/>
		<line class="st0" x1="688.4" y1="101.3" x2="505.9" y2="101.3"/>
		<line class="st0" x1="688.4" y1="96.1" x2="505.9" y2="96.1"/>
		<line class="st0" x1="688.4" y1="85.9" x2="505.9" y2="85.9"/>
		<line class="st0" x1="688.4" y1="80.7" x2="505.9" y2="80.7"/>
		<line class="st0" x1="688.4" y1="75.6" x2="505.9" y2="75.6"/>
		<line class="st0" x1="688.4" y1="70.5" x2="505.9" y2="70.5"/>
		<line class="st0" x1="688.4" y1="60.2" x2="505.9" y2="60.2"/>
		<line class="st0" x1="688.4" y1="55.1" x2="505.9" y2="55.1"/>
		<line class="st0" x1="688.4" y1="49.9" x2="505.9" y2="49.9"/>
		<line class="st0" x1="688.4" y1="44.8" x2="505.9" y2="44.8"/>
		<line class="st0" x1="688.4" y1="34.5" x2="505.9" y2="34.5"/>
		<line class="st0" x1="688.4" y1="29.4" x2="505.9" y2="29.4"/>
		<line class="st0" x1="688.4" y1="24.3" x2="505.9" y2="24.3"/>
		<line class="st0" x1="688.4" y1="19.1" x2="505.9" y2="19.1"/>
	</g>
	<g>
		<line class="st1" x1="688.4" y1="168" x2="505.9" y2="168"/>
		<line class="st1" x1="688.4" y1="142.3" x2="505.9" y2="142.3"/>
		<line class="st1" x1="688.4" y1="116.7" x2="505.9" y2="116.7"/>
		<line class="st1" x1="688.4" y1="91" x2="505.9" y2="91"/>
		<line class="st1" x1="688.4" y1="65.3" x2="505.9" y2="65.3"/>
		<line class="st1" x1="688.4" y1="39.7" x2="505.9" y2="39.7"/>
		<line class="st1" x1="688.4" y1="14" x2="505.9" y2="14"/>
		<line class="st2" x1="505.9" y1="168" x2="688.4" y2="168"/>
		<line class="st2" x1="505.9" y1="168" x2="505.9" y2="166.2"/>
		<line class="st2" x1="542.4" y1="168" x2="542.4" y2="166.2"/>
		<line class="st2" x1="578.9" y1="168" x2="578.9" y2="166.2"/>
		<line class="st2" x1="615.4" y1="168" x2="615.4" y2="166.2"/>
		<line class="st2" x1="651.9" y1="168" x2="651.9" y2="166.2"/>
		<line class="st2" x1="688.4" y1="168" x2="688.4" y2="166.2"/>
	</g>
	<g transform="translate(590.5,172)">
		<text transform="matrix(1 0 0 1 -87.5683 10)" class="st3 st4 st5">0</text>
	</g>
	<g transform="translate(773,172)">
		<text transform="matrix(1 0 0 1 -87.5683 10)" class="st3 st4 st5">t</text>
	</g>
	<g>
		<line class="st2" x1="505.9" y1="168" x2="505.9" y2="14"/>
		<line class="st2" x1="505.9" y1="168" x2="507.8" y2="168"/>
		<line class="st2" x1="505.9" y1="142.3" x2="507.8" y2="142.3"/>
		<line class="st2" x1="505.9" y1="116.7" x2="507.8" y2="116.7"/>
		<line class="st2" x1="505.9" y1="91" x2="507.8" y2="91"/>
		<line class="st2" x1="505.9" y1="65.3" x2="507.8" y2="65.3"/>
		<line class="st2" x1="505.9" y1="39.7" x2="507.8" y2="39.7"/>
		<line class="st2" x1="505.9" y1="14" x2="507.8" y2="14"/>
	</g>
	<g transform="translate(586.5,168)">
		<text transform="matrix(1 0 0 1 -102.5683 3.5)" class="st3 st4 st5">-1.5</text>
	</g>
	<g transform="translate(586.5,142.3333)">
		<text transform="matrix(1 0 0 1 -94.5683 3.5)" class="st3 st4 st5">-1</text>
	</g>
	<g transform="translate(586.5,116.6667)">
		<text transform="matrix(1 0 0 1 -102.5683 3.5)" class="st3 st4 st5">-0.5</text>
	</g>
	<g transform="translate(586.5,91)">
		<text transform="matrix(1 0 0 1 -90.5683 3.5)" class="st3 st4 st5">0</text>
	</g>
	<g transform="translate(586.5,65.3333)">
		<text transform="matrix(1 0 0 1 -98.5683 3.5)" class="st3 st4 st5">0.5</text>
	</g>
	<g transform="translate(586.5,39.6667)">
		<text transform="matrix(1 0 0 1 -90.5683 3.5001)" class="st3 st4 st5">1</text>
	</g>
	<g transform="translate(586.5,14)">
		<text transform="matrix(1 0 0 1 -98.5683 3.5)" class="st3 st4 st5">1.5</text>
	</g>
	<g>
		<path class="st6" d="M505.9,91l18.2-51.3h146L688.4,91"/>
		<path class="st7" d="M524.2,14v77h146v77"/>
	</g>
	<g>
		<path class="st8" d="M579.9,161.5V135h-67.5v26.5H579.9z"/>
	</g>
	<g transform="translate(634,142.5)">
		<text transform="matrix(1 0 0 1 -84.5683 3.5)" class="st4 st9">speed</text>
	</g>
	<g>
		<line class="st6" x1="516.4" y1="142.5" x2="546.4" y2="142.5"/>
	</g>
	<g transform="translate(634,154)">
		<text transform="matrix(1 0 0 1 -84.5683 3.5)" class="st4 st9">torque</text>
	</g>
	<g>
		<line class="st7" x1="516.4" y1="154" x2="546.4" y2="154"/>
		<path class="st10" d="M512.4,161.5V135h67.5v26.5H512.4z"/>
	</g>
</g>
</svg>
